<?xml version="1.0" encoding="UTF-8" standalone="no"?>
<svg
   version="1.1"
   width="1024"
   height="1024"
   id="svg5"
   sodipodi:docname="flatpak-store-ui.svg"
   xml:space="preserve"
   inkscape:version="1.4 (e7c3feb100, 2024-10-09)"
   inkscape:export-filename="flatpak-store-ui.svg"
   inkscape:export-xdpi="96"
   inkscape:export-ydpi="96"
   xmlns:inkscape="http://www.inkscape.org/namespaces/inkscape"
   xmlns:sodipodi="http://sodipodi.sourceforge.net/DTD/sodipodi-0.dtd"
   xmlns="http://www.w3.org/2000/svg"
   xmlns:svg="http://www.w3.org/2000/svg"
   xmlns:sketch="http://www.bohemiancoding.com/sketch/ns"><defs
     id="defs5"><rect
       x="371.68784"
       y="853.02359"
       width="498.06171"
       height="135.66606"
       id="rect7" /></defs><sodipodi:namedview
     id="namedview5"
     pagecolor="#ffffff"
     bordercolor="#999999"
     borderopacity="1"
     inkscape:showpageshadow="2"
     inkscape:pageopacity="0"
     inkscape:pagecheckerboard="0"
     inkscape:deskcolor="#d1d1d1"
     inkscape:zoom="0.53782918"
     inkscape:cx="352.34236"
     inkscape:cy="528.97837"
     inkscape:window-width="1366"
     inkscape:window-height="772"
     inkscape:window-x="0"
     inkscape:window-y="41"
     inkscape:window-maximized="1"
     inkscape:current-layer="svg5" /><path
     d="M0 0 C1.80453219 -0.00302982 3.6090631 -0.00692341 5.4135918 -0.01159257 C10.31438016 -0.02177472 15.21509457 -0.01971603 20.11588871 -0.01541197 C25.42422128 -0.01292671 30.73253686 -0.02198116 36.04086304 -0.02944946 C46.41901316 -0.04214958 56.79713735 -0.04399596 67.17529393 -0.0416492 C75.61950976 -0.03986033 84.06371777 -0.04162783 92.50793266 -0.04587364 C93.71345978 -0.04646883 94.9189869 -0.04706402 96.16104515 -0.04767724 C98.61075299 -0.0488891 101.06046083 -0.05010324 103.51016866 -0.05131962 C126.44578342 -0.06217746 149.38138344 -0.06004121 172.31699901 -0.05393478 C193.24979071 -0.04876925 214.18253582 -0.06001461 235.11531831 -0.07903299 C256.66086619 -0.09845647 278.20639209 -0.10665937 299.75194877 -0.10290974 C311.82727876 -0.10100427 323.90256913 -0.10342103 335.97789192 -0.11762428 C346.25995933 -0.12959683 356.54196274 -0.13087775 366.82403112 -0.11883412 C372.05868955 -0.1129859 377.29323128 -0.11173199 382.52788162 -0.12383652 C403.64638324 -0.16938031 424.34112659 -0.01609709 445.26194763 3.26069641 C445.98714792 3.37024953 446.71234822 3.47980265 447.45952427 3.59267557 C451.1218587 4.14824142 454.75521023 4.78126372 458.38694763 5.51069641 C459.97829529 5.82647644 459.97829529 5.82647644 461.60179138 6.14863586 C518.11369372 17.79206533 575.67276213 46.69205163 615.80882263 88.83491516 C617.22448465 90.36996632 617.22448465 90.36996632 619.26194763 91.26069641 C619.26194763 91.92069641 619.26194763 92.58069641 619.26194763 93.26069641 C619.92194763 93.26069641 620.58194763 93.26069641 621.26194763 93.26069641 C622.56663513 94.55366516 622.56663513 94.55366516 624.13694763 96.44819641 C626.75960394 99.55113341 629.46380746 102.52817324 632.28025818 105.45625305 C672.83613902 148.0035085 699.06887435 207.36838673 708.51194763 264.88569641 C708.66309021 265.80085022 708.81423279 266.71600403 708.96995544 267.65888977 C709.458664 270.85397367 709.86322466 274.05302647 710.26194763 277.26069641 C710.34520652 277.89959946 710.42846541 278.53850251 710.5142473 279.19676626 C712.96697631 298.73264586 712.55556588 318.40537102 712.53805602 338.05477846 C712.53556519 343.30168894 712.54463183 348.54858241 712.55209351 353.79548645 C712.56477729 364.04655667 712.56664217 374.29760062 712.56429324 384.54867736 C712.56250296 392.88890175 712.56427486 401.22911822 712.56851768 409.56934166 C712.56911287 410.76087423 712.56970806 411.95240679 712.57032129 413.18004641 C712.57153316 415.60141038 712.5727473 418.02277434 712.57396366 420.44413831 C712.58481465 443.09979988 712.58268819 465.75544653 712.57657882 488.41110893 C712.57141072 509.08895789 712.58266666 529.76675973 712.60167704 550.44459937 C712.62109772 571.73372464 712.62930411 593.02282765 712.62555379 614.31196183 C712.6236483 626.24133906 712.62606547 638.1706762 712.64026833 650.10004616 C712.6522371 660.25470935 712.65352574 670.40930774 712.64147816 680.56397191 C712.6356281 685.7337193 712.63438141 690.90334849 712.64648056 696.07308769 C712.82951743 780.13904103 687.12924825 862.8082603 627.45335388 924.19038391 C625.07717524 926.57009328 622.67720873 928.92078141 620.26194763 931.26069641 C617.81206943 933.69523891 615.3779009 936.14118144 612.97288513 938.62007141 C607.07617582 944.65483077 600.9196432 950.08248875 594.26194763 955.26069641 C593.67671326 955.71702454 593.09147888 956.17335266 592.48851013 956.64350891 C544.99728991 993.49354286 489.09912116 1016.71606251 429.26194763 1023.26069641 C428.14085959 1023.39278067 428.14085959 1023.39278067 426.9971233 1023.52753329 C418.18133191 1024.46271706 409.37616736 1024.40627244 400.52389526 1024.40113831 C398.73039326 1024.4037258 396.93689183 1024.40674003 395.14339119 1024.41014171 C390.23594934 1024.41817022 385.32852215 1024.41999896 380.42107451 1024.42073917 C375.11942191 1024.42259707 369.81777678 1024.43014823 364.51612854 1024.43687439 C352.93069396 1024.45043027 341.34526285 1024.45647858 329.75982165 1024.46088505 C322.51560121 1024.46365298 315.2713821 1024.46789141 308.02716255 1024.47238922 C287.94225746 1024.48457993 267.85735343 1024.49487858 247.77244473 1024.49826431 C246.48802555 1024.49848388 245.20360638 1024.49870344 243.88026542 1024.49892966 C242.59288419 1024.49914794 241.30550296 1024.49936622 239.97911018 1024.49959111 C237.37067123 1024.50003457 234.76223228 1024.50048113 232.15379333 1024.50093079 C230.21300623 1024.50126293 230.21300623 1024.50126293 228.23301131 1024.50160179 C207.29648023 1024.50554466 186.35998405 1024.52298396 165.42346644 1024.54629031 C143.89173498 1024.57006424 122.360021 1024.58246896 100.82827622 1024.58363223 C88.7539413 1024.58454578 76.67965184 1024.59021658 64.60532951 1024.60845184 C54.31758283 1024.62393482 44.02989565 1024.62892546 33.74213951 1024.62071374 C28.50348288 1024.61683561 23.26494578 1024.61759602 18.02630424 1024.63177109 C-3.10318865 1024.68568943 -23.80640635 1024.54225508 -44.73805237 1021.26069641 C-45.46319601 1021.15112311 -46.18833966 1021.04154981 -46.93545735 1020.9286561 C-50.59785237 1020.37310874 -54.23122438 1019.73995891 -57.86305237 1019.01069641 C-58.92250061 1018.80090149 -59.98194885 1018.59110657 -61.07350159 1018.37495422 C-101.49076809 1010.05992804 -139.64124087 993.32768036 -173.73805237 970.26069641 C-174.34068909 969.85383606 -174.94332581 969.44697571 -175.56422424 969.02778625 C-191.46306725 958.20257068 -205.90912887 945.59321823 -219.73805237 932.26069641 C-221.14377502 930.91684875 -221.14377502 930.91684875 -222.57789612 929.54585266 C-227.57820111 924.66882175 -232.10163727 919.56373787 -236.45680237 914.10444641 C-238.82852122 911.14792018 -241.27897764 908.2697964 -243.73805237 905.38569641 C-248.36547177 899.83136712 -252.54856734 894.0724552 -256.54762268 888.05171204 C-257.36243424 886.82581835 -258.18235355 885.60330852 -259.00660706 884.38374329 C-298.27384694 826.22514781 -312.43577957 761.54788275 -312.26095104 692.28239906 C-312.25176064 686.87606713 -312.26593818 681.46978313 -312.27687073 676.0634613 C-312.29451277 665.51781023 -312.29088086 654.97227402 -312.27922016 644.42661873 C-312.27013055 635.8458775 -312.26898552 627.26516812 -312.27331543 618.68442345 C-312.27392836 617.4561214 -312.27454129 616.22781936 -312.2751728 614.96229604 C-312.27645189 612.46588506 -312.27774875 609.96947409 -312.27906317 607.47306313 C-312.29042664 584.15055464 -312.27742131 560.82810938 -312.2558617 537.50561126 C-312.23798788 517.55341729 -312.24110546 497.60131644 -312.25953674 477.64912415 C-312.28100701 454.39677549 -312.28933543 431.14448201 -312.27708769 407.89212483 C-312.27581368 405.40659059 -312.27455619 402.92105634 -312.27331543 400.43552208 C-312.27269833 399.21304935 -312.27208123 397.99057662 -312.27144542 396.73105926 C-312.26801144 388.17275667 -312.27377828 379.61448949 -312.28323364 371.0561924 C-312.29452345 360.60939349 -312.29126803 350.16271458 -312.27011067 339.71592919 C-312.25969437 334.39990341 -312.2553148 329.08407675 -312.26870728 323.76805305 C-312.42206147 257.29101749 -296.77899375 191.41965128 -256.9299469 136.89497375 C-255.84750175 135.41076895 -254.78938765 133.90889542 -253.73414612 132.40522766 C-243.83544681 118.41479044 -232.62155383 105.58216476 -220.73805237 93.26069641 C-219.84086487 92.32225891 -218.94367737 91.38382141 -218.01930237 90.41694641 C-213.14883906 85.42318023 -208.05425842 80.91165805 -202.59352112 76.57319641 C-200.72309942 75.0584363 -198.8896798 73.49653267 -197.10133362 71.88569641 C-181.41647148 57.84849374 -162.49327713 45.76654257 -143.73805237 36.26069641 C-142.84505432 35.80533508 -141.95205627 35.34997375 -141.03199768 34.8808136 C-97.00592317 12.62921141 -49.4541541 -0.11999079 0 0 Z "
     fill="#4A86CF"
     transform="translate(311.73805236816406,-0.2606964111328125)"
     id="path1"
     style="fill:#42d751;fill-opacity:1" /><g
     style="fill:#42d751;fill-opacity:1"
     id="g5"
     transform="matrix(3.8639296,0,0,4.4348213,162.94374,762.05291)"><path
       d="m 106.24678,-26.007605 16.44155,17.7741951 36.99345,-39.9918471"
       stroke="#000000"
       stroke-width="2"
       stroke-linecap="round"
       stroke-linejoin="round"
       id="path1-3"
       style="fill:none;fill-opacity:1;stroke:#ffffff;stroke-width:7.50223;stroke-linejoin:round;stroke-dasharray:none;stroke-opacity:1" /><path
       d="M 66.732381,-24.569565 80.95388,-36.479113 c 3.923787,-3.282491 3.923787,-8.627058 0,-11.909547 -3.928794,-3.303532 -10.295208,-3.303532 -14.221499,0 L 52.513388,-36.479113 38.294395,-48.38866 c -3.92378,-3.303532 -10.290193,-3.303532 -14.218993,0 -3.923779,3.282489 -3.923779,8.627056 0,11.909547 l 14.218993,11.909548 -14.218993,11.930588 c -3.923779,3.2824906 -3.923779,8.6270576 0,11.90954789 3.9288,3.30353181 10.295213,3.30353181 14.218993,0 L 52.513388,-12.638977 66.732381,-0.72942911 c 3.926291,3.30353181 10.292705,3.30353181 14.221499,0 3.923787,-3.28249029 3.923787,-8.62705729 0,-11.90954789 L 66.732381,-24.569565"
       id="cross"
       sketch:type="MSShapeGroup"
       style="fill:#ffffff;fill-rule:evenodd;stroke:#ffffff;stroke-width:2.29833;stroke-opacity:1;fill-opacity:1" /></g><g
     style="fill:#ffffff;fill-opacity:1"
     id="g6"
     transform="matrix(13.819896,0,0,13.556676,201.97432,208.31262)"><path
       id="primary"
       d="M 20,6.2 13,2.26 a 2,2 0 0 0 -2,0 L 4,6.19 A 2,2 0 0 0 3,7.94 v 8.12 a 2,2 0 0 0 1,1.74 l 7,3.94 a 2,2 0 0 0 2,0 l 7,-3.93 a 2,2 0 0 0 1,-1.75 V 7.94 A 2,2 0 0 0 20,6.2 Z M 12,15 a 3,3 0 1 1 3,-3 3,3 0 0 1 -3,3 z"
       style="fill:#ffffff;fill-opacity:1" /></g><g
     style="fill:#ffffff;stroke:#ffffff;stroke-opacity:1;fill-opacity:1"
     id="g7"
     transform="matrix(13.912643,0,0,13.912643,504.65445,201.73975)"><path
       d="M 12,2 C 6.486,2 2,6.486 2,12 2,17.514 6.486,22 12,22 17.514,22 22,17.514 22,12 22,6.486 17.514,2 12,2 Z M 6.435,8.467 A 1.49,1.49 0 0 1 8.502,8.4 1.49,1.49 0 0 1 10.567,8.433 c 0.597,0.592 0.604,1.521 0.018,2.118 l -2.05,2.083 -2.082,-2.05 A 1.484,1.484 0 0 1 6.435,8.467 Z M 12,18 C 8,18 7,14 7,14 h 10 c 0,0 -1,4 -5,4 z m 5.585,-7.449 -2.05,2.083 -2.082,-2.05 A 1.485,1.485 0 0 1 13.434,8.467 1.49,1.49 0 0 1 15.502,8.4 1.49,1.49 0 0 1 17.567,8.433 c 0.597,0.591 0.605,1.521 0.018,2.118 z"
       id="path1-6"
       style="stroke:#ffffff;stroke-opacity:1;fill:#ffffff;fill-opacity:1" /></g><text
     xml:space="preserve"
     id="text7"
     style="font-style:normal;font-variant:normal;font-weight:normal;font-stretch:normal;font-family:BlippoBlaP;-inkscape-font-specification:BlippoBlaP;text-align:start;writing-mode:lr-tb;direction:ltr;white-space:pre;shape-inside:url(#rect7);display:inline;fill:#da3a3a;fill-opacity:1;stroke:#4dda00;stroke-width:30.958;stroke-linejoin:round;stroke-dasharray:none;stroke-opacity:1" /></svg>
