<?xml version="1.0" encoding="UTF-8"?>
<svg version="1.1" xmlns="http://www.w3.org/2000/svg" width="1024" height="1024">
<path d="M0 0 C1.80453219 -0.00302982 3.6090631 -0.00692341 5.4135918 -0.01159257 C10.31438016 -0.02177472 15.21509457 -0.01971603 20.11588871 -0.01541197 C25.42422128 -0.01292671 30.73253686 -0.02198116 36.04086304 -0.02944946 C46.41901316 -0.04214958 56.79713735 -0.04399596 67.17529393 -0.0416492 C75.61950976 -0.03986033 84.06371777 -0.04162783 92.50793266 -0.04587364 C93.71345978 -0.04646883 94.9189869 -0.04706402 96.16104515 -0.04767724 C98.61075299 -0.0488891 101.06046083 -0.05010324 103.51016866 -0.05131962 C126.44578342 -0.06217746 149.38138344 -0.06004121 172.31699901 -0.05393478 C193.24979071 -0.04876925 214.18253582 -0.06001461 235.11531831 -0.07903299 C256.66086619 -0.09845647 278.20639209 -0.10665937 299.75194877 -0.10290974 C311.82727876 -0.10100427 323.90256913 -0.10342103 335.97789192 -0.11762428 C346.25995933 -0.12959683 356.54196274 -0.13087775 366.82403112 -0.11883412 C372.05868955 -0.1129859 377.29323128 -0.11173199 382.52788162 -0.12383652 C403.64638324 -0.16938031 424.34112659 -0.01609709 445.26194763 3.26069641 C445.98714792 3.37024953 446.71234822 3.47980265 447.45952427 3.59267557 C451.1218587 4.14824142 454.75521023 4.78126372 458.38694763 5.51069641 C459.97829529 5.82647644 459.97829529 5.82647644 461.60179138 6.14863586 C518.11369372 17.79206533 575.67276213 46.69205163 615.80882263 88.83491516 C617.22448465 90.36996632 617.22448465 90.36996632 619.26194763 91.26069641 C619.26194763 91.92069641 619.26194763 92.58069641 619.26194763 93.26069641 C619.92194763 93.26069641 620.58194763 93.26069641 621.26194763 93.26069641 C622.56663513 94.55366516 622.56663513 94.55366516 624.13694763 96.44819641 C626.75960394 99.55113341 629.46380746 102.52817324 632.28025818 105.45625305 C672.83613902 148.0035085 699.06887435 207.36838673 708.51194763 264.88569641 C708.66309021 265.80085022 708.81423279 266.71600403 708.96995544 267.65888977 C709.458664 270.85397367 709.86322466 274.05302647 710.26194763 277.26069641 C710.34520652 277.89959946 710.42846541 278.53850251 710.5142473 279.19676626 C712.96697631 298.73264586 712.55556588 318.40537102 712.53805602 338.05477846 C712.53556519 343.30168894 712.54463183 348.54858241 712.55209351 353.79548645 C712.56477729 364.04655667 712.56664217 374.29760062 712.56429324 384.54867736 C712.56250296 392.88890175 712.56427486 401.22911822 712.56851768 409.56934166 C712.56911287 410.76087423 712.56970806 411.95240679 712.57032129 413.18004641 C712.57153316 415.60141038 712.5727473 418.02277434 712.57396366 420.44413831 C712.58481465 443.09979988 712.58268819 465.75544653 712.57657882 488.41110893 C712.57141072 509.08895789 712.58266666 529.76675973 712.60167704 550.44459937 C712.62109772 571.73372464 712.62930411 593.02282765 712.62555379 614.31196183 C712.6236483 626.24133906 712.62606547 638.1706762 712.64026833 650.10004616 C712.6522371 660.25470935 712.65352574 670.40930774 712.64147816 680.56397191 C712.6356281 685.7337193 712.63438141 690.90334849 712.64648056 696.07308769 C712.82951743 780.13904103 687.12924825 862.8082603 627.45335388 924.19038391 C625.07717524 926.57009328 622.67720873 928.92078141 620.26194763 931.26069641 C617.81206943 933.69523891 615.3779009 936.14118144 612.97288513 938.62007141 C607.07617582 944.65483077 600.9196432 950.08248875 594.26194763 955.26069641 C593.67671326 955.71702454 593.09147888 956.17335266 592.48851013 956.64350891 C544.99728991 993.49354286 489.09912116 1016.71606251 429.26194763 1023.26069641 C428.14085959 1023.39278067 428.14085959 1023.39278067 426.9971233 1023.52753329 C418.18133191 1024.46271706 409.37616736 1024.40627244 400.52389526 1024.40113831 C398.73039326 1024.4037258 396.93689183 1024.40674003 395.14339119 1024.41014171 C390.23594934 1024.41817022 385.32852215 1024.41999896 380.42107451 1024.42073917 C375.11942191 1024.42259707 369.81777678 1024.43014823 364.51612854 1024.43687439 C352.93069396 1024.45043027 341.34526285 1024.45647858 329.75982165 1024.46088505 C322.51560121 1024.46365298 315.2713821 1024.46789141 308.02716255 1024.47238922 C287.94225746 1024.48457993 267.85735343 1024.49487858 247.77244473 1024.49826431 C246.48802555 1024.49848388 245.20360638 1024.49870344 243.88026542 1024.49892966 C242.59288419 1024.49914794 241.30550296 1024.49936622 239.97911018 1024.49959111 C237.37067123 1024.50003457 234.76223228 1024.50048113 232.15379333 1024.50093079 C230.21300623 1024.50126293 230.21300623 1024.50126293 228.23301131 1024.50160179 C207.29648023 1024.50554466 186.35998405 1024.52298396 165.42346644 1024.54629031 C143.89173498 1024.57006424 122.360021 1024.58246896 100.82827622 1024.58363223 C88.7539413 1024.58454578 76.67965184 1024.59021658 64.60532951 1024.60845184 C54.31758283 1024.62393482 44.02989565 1024.62892546 33.74213951 1024.62071374 C28.50348288 1024.61683561 23.26494578 1024.61759602 18.02630424 1024.63177109 C-3.10318865 1024.68568943 -23.80640635 1024.54225508 -44.73805237 1021.26069641 C-45.46319601 1021.15112311 -46.18833966 1021.04154981 -46.93545735 1020.9286561 C-50.59785237 1020.37310874 -54.23122438 1019.73995891 -57.86305237 1019.01069641 C-58.92250061 1018.80090149 -59.98194885 1018.59110657 -61.07350159 1018.37495422 C-101.49076809 1010.05992804 -139.64124087 993.32768036 -173.73805237 970.26069641 C-174.34068909 969.85383606 -174.94332581 969.44697571 -175.56422424 969.02778625 C-191.46306725 958.20257068 -205.90912887 945.59321823 -219.73805237 932.26069641 C-221.14377502 930.91684875 -221.14377502 930.91684875 -222.57789612 929.54585266 C-227.57820111 924.66882175 -232.10163727 919.56373787 -236.45680237 914.10444641 C-238.82852122 911.14792018 -241.27897764 908.2697964 -243.73805237 905.38569641 C-248.36547177 899.83136712 -252.54856734 894.0724552 -256.54762268 888.05171204 C-257.36243424 886.82581835 -258.18235355 885.60330852 -259.00660706 884.38374329 C-298.27384694 826.22514781 -312.43577957 761.54788275 -312.26095104 692.28239906 C-312.25176064 686.87606713 -312.26593818 681.46978313 -312.27687073 676.0634613 C-312.29451277 665.51781023 -312.29088086 654.97227402 -312.27922016 644.42661873 C-312.27013055 635.8458775 -312.26898552 627.26516812 -312.27331543 618.68442345 C-312.27392836 617.4561214 -312.27454129 616.22781936 -312.2751728 614.96229604 C-312.27645189 612.46588506 -312.27774875 609.96947409 -312.27906317 607.47306313 C-312.29042664 584.15055464 -312.27742131 560.82810938 -312.2558617 537.50561126 C-312.23798788 517.55341729 -312.24110546 497.60131644 -312.25953674 477.64912415 C-312.28100701 454.39677549 -312.28933543 431.14448201 -312.27708769 407.89212483 C-312.27581368 405.40659059 -312.27455619 402.92105634 -312.27331543 400.43552208 C-312.27269833 399.21304935 -312.27208123 397.99057662 -312.27144542 396.73105926 C-312.26801144 388.17275667 -312.27377828 379.61448949 -312.28323364 371.0561924 C-312.29452345 360.60939349 -312.29126803 350.16271458 -312.27011067 339.71592919 C-312.25969437 334.39990341 -312.2553148 329.08407675 -312.26870728 323.76805305 C-312.42206147 257.29101749 -296.77899375 191.41965128 -256.9299469 136.89497375 C-255.84750175 135.41076895 -254.78938765 133.90889542 -253.73414612 132.40522766 C-243.83544681 118.41479044 -232.62155383 105.58216476 -220.73805237 93.26069641 C-219.84086487 92.32225891 -218.94367737 91.38382141 -218.01930237 90.41694641 C-213.14883906 85.42318023 -208.05425842 80.91165805 -202.59352112 76.57319641 C-200.72309942 75.0584363 -198.8896798 73.49653267 -197.10133362 71.88569641 C-181.41647148 57.84849374 -162.49327713 45.76654257 -143.73805237 36.26069641 C-142.84505432 35.80533508 -141.95205627 35.34997375 -141.03199768 34.8808136 C-97.00592317 12.62921141 -49.4541541 -0.11999079 0 0 Z " fill="#4A86CF" transform="translate(311.73805236816406,-0.2606964111328125)"/>
<path d="M0 0 C4.35039296 3.51889584 8.48491034 7.22840869 12.5546875 11.06640625 C13.23144531 11.67871094 13.90820312 12.29101562 14.60546875 12.921875 C36.58088224 33.57612134 48.91624004 65.22456418 49.89135742 94.95507812 C50.18680099 114.11939227 46.7288325 132.71679346 38.5546875 150.06640625 C38.04977783 151.15042725 38.04977783 151.15042725 37.53466797 152.25634766 C24.1104807 180.53922471 0.25112621 203.41407351 -29.2734375 214.26953125 C-31.36902231 215.00319741 -33.46802223 215.72718122 -35.5703125 216.44140625 C-36.54726074 216.77543457 -37.52420898 217.10946289 -38.53076172 217.45361328 C-50.52062944 221.34606324 -62.25919711 222.43719449 -74.8203125 222.37890625 C-76.09817627 222.3732666 -77.37604004 222.36762695 -78.69262695 222.36181641 C-87.67377229 222.24607852 -95.80094075 221.65090698 -104.4453125 219.06640625 C-105.13028809 218.87304688 -105.81526367 218.6796875 -106.52099609 218.48046875 C-138.02464103 209.4893382 -165.08665903 188.61192296 -181.33154297 160.08349609 C-192.02630752 140.71476643 -196.83063988 121.18631898 -196.6953125 99.00390625 C-196.70304688 97.73224609 -196.71078125 96.46058594 -196.71875 95.15039062 C-196.70253566 87.24995117 -196.02652582 79.80452394 -194.4453125 72.06640625 C-194.208125 70.84050781 -193.9709375 69.61460937 -193.7265625 68.3515625 C-188.45633927 46.61189166 -176.7574167 28.10489111 -161.4453125 12.06640625 C-160.92066406 11.47859375 -160.39601563 10.89078125 -159.85546875 10.28515625 C-147.42806678 -3.12252425 -128.9669059 -13.97021198 -111.4453125 -18.93359375 C-110.73971191 -19.145 -110.03411133 -19.35640625 -109.30712891 -19.57421875 C-72.07807938 -30.45946369 -30.98775867 -23.49368647 0 0 Z " fill="#FEFEFE" transform="translate(450.4453125,269.93359375)"/>
<path d="M0 0 C1.70268036 -0.01270432 1.70268036 -0.01270432 3.4397583 -0.02566528 C7.15632639 -0.04887823 10.87247652 -0.05006098 14.58911133 -0.04882812 C17.19924582 -0.05594025 19.80937877 -0.06364076 22.41950989 -0.07189941 C27.8788283 -0.08644759 33.33803244 -0.08711277 38.79736328 -0.08105469 C45.06296291 -0.07442837 51.32797172 -0.09724108 57.59345168 -0.13436842 C63.67180615 -0.16904928 69.74988651 -0.17537961 75.8283329 -0.17127991 C78.39047311 -0.17296011 80.95262191 -0.18249508 83.51469994 -0.20042419 C103.09201574 -0.32233943 119.44411637 0.96352619 135.98364258 12.41992188 C136.96010742 13.0928125 136.96010742 13.0928125 137.95629883 13.77929688 C149.31921965 22.57973669 156.70264211 36.40001054 158.98364258 50.41992188 C159.27041148 54.4712905 159.28759 58.51012548 159.29003906 62.57055664 C159.29836258 63.75561295 159.3066861 64.94066925 159.31526184 66.16163635 C159.33512785 69.38937975 159.34598449 72.61697353 159.35108829 75.84476972 C159.35475258 77.87031408 159.36100332 79.89583444 159.36808968 81.92136955 C159.39253361 89.01375268 159.40562398 96.10606326 159.40917969 103.19848633 C159.41280562 109.76677466 159.44264577 116.3345931 159.48458427 122.90273815 C159.5195097 128.57532542 159.53473197 134.24775871 159.53542572 139.92045254 C159.53621139 143.29361374 159.54705944 146.66591816 159.57342339 150.03903389 C159.73719438 172.80895823 157.63706553 190.81594977 141.46411133 208.09960938 C128.71657008 220.02408103 113.17282 224.73399213 96.13671875 224.69458008 C94.98425156 224.69969101 93.83178436 224.70480194 92.64439392 224.71006775 C88.85507942 224.72390611 85.06594801 224.72301114 81.27661133 224.72070312 C79.29805238 224.72360904 77.31949336 224.72652037 75.34093553 224.73010987 C69.12538387 224.74117137 62.90989266 224.74166186 56.69433594 224.7355957 C50.31240246 224.72956226 43.9306898 224.74185851 37.54879397 224.76316577 C32.04272388 224.78086337 26.53672355 224.78677025 21.03062612 224.78352803 C17.75395628 224.78172751 14.47747738 224.78556886 11.20082664 224.79824257 C7.53996454 224.81066452 3.87960487 224.80378015 0.21875 224.79223633 C-0.84605591 224.79988007 -1.91086182 224.8075238 -3.00793457 224.81539917 C-19.22080148 224.7031573 -35.18899398 218.69823943 -47.01635742 207.41992188 C-58.98153196 194.92394477 -64.48997271 179.15424885 -64.42041016 162.1081543 C-64.42727341 160.91813309 -64.43413666 159.72811188 -64.44120789 158.50202942 C-64.45627827 155.26619959 -64.45799577 152.03073499 -64.4522655 148.7948854 C-64.44915326 146.0791258 -64.45528877 143.36341715 -64.46130425 140.64766484 C-64.47530559 134.23210697 -64.47382601 127.81668236 -64.46240234 121.40112305 C-64.4509353 114.81633155 -64.46498269 108.23194804 -64.49179882 101.6472103 C-64.5140654 95.96359647 -64.52056843 90.28010967 -64.51472241 84.5964554 C-64.51137643 81.21522227 -64.51360786 77.83425024 -64.53097343 74.45305443 C-64.5459658 70.67502501 -64.53514402 66.89787623 -64.51806641 63.11987305 C-64.52773438 62.02283051 -64.53740234 60.92578796 -64.54736328 59.79550171 C-64.39887526 43.99000445 -58.17301408 30.09076689 -47.36010742 18.70117188 C-34.04112499 5.73736231 -18.47080363 -0.05190457 0 0 Z " fill="#FEFEFE" transform="translate(328.016357421875,533.580078125)"/>
<path d="M0 0 C3.08465313 1.72710969 6.12833504 3.51083626 9.16552734 5.32006836 C10.88169359 6.32633451 12.59786831 7.33258653 14.31454468 8.33798218 C16.08173893 9.37440092 17.84667425 10.41458519 19.61132812 11.45532227 C25.08560334 14.67904735 30.59642554 17.83950672 36.10302734 21.00756836 C38.26985948 22.2572815 40.43652579 23.50728221 42.60302734 24.75756836 C43.67552734 25.37631836 44.74802734 25.99506836 45.85302734 26.63256836 C57.76969401 33.50756836 69.68636068 40.38256836 81.60302734 47.25756836 C82.67568848 47.87639893 83.74834961 48.49522949 84.85351562 49.1328125 C87.01859805 50.38192354 89.18363717 51.63110965 91.34863281 52.88037109 C96.7891844 56.01959145 102.2304995 59.15747399 107.67333984 62.29272461 C112.00483311 64.78786298 116.33408093 67.28683062 120.66162109 69.78881836 C125.04281328 72.32174727 129.43193526 74.84024047 133.82568359 77.35131836 C135.98076308 78.59067294 138.13571582 79.83024795 140.29052734 81.07006836 C141.27617676 81.62960205 142.26182617 82.18913574 143.27734375 82.765625 C150.56036975 86.97234239 157.20090014 91.07871691 161.41552734 98.57006836 C161.88603516 99.38604492 162.35654297 100.20202148 162.84130859 101.04272461 C167.39566572 109.93993622 168.01049641 120.56825832 164.93505859 130.14428711 C163.49521921 133.09429223 161.9368823 135.78764406 160.10302734 138.50756836 C159.38115234 139.60069336 158.65927734 140.69381836 157.91552734 141.82006836 C150.61260986 148.79841173 140.89010496 153.45254344 132.16552734 158.44506836 C131.04871582 159.08694092 129.9319043 159.72881348 128.78125 160.39013672 C121.69654791 164.46062213 114.59932456 168.50921455 107.50268555 172.55883789 C106.92152985 172.89046936 106.34037415 173.22210083 105.74160767 173.56378174 C104.5625997 174.23651545 103.38354262 174.90916309 102.20443726 175.58172607 C93.11743583 180.76611829 84.06598508 186.00882524 75.03564453 191.29125977 C64.52211004 197.43953573 53.96957346 203.51963857 43.41601562 209.59887695 C38.93949574 212.17790661 34.46403485 214.75876796 29.98925781 217.34082031 C27.79246999 218.60767658 25.59489198 219.8731637 23.39648438 221.13720703 C18.44332484 223.98763872 13.50310335 226.85446101 8.59912109 229.78881836 C7.74954834 230.29316406 6.89997559 230.79750977 6.0246582 231.31713867 C4.48231224 232.23455385 2.94477577 233.16013908 1.41381836 234.09643555 C-8.40891437 239.91510649 -19.36804003 242.63679413 -30.66650391 239.81616211 C-41.38478539 235.88118627 -49.18156556 228.72332238 -54.03649902 218.39979553 C-57.04849649 210.58455661 -56.45483709 202.22602476 -56.41455078 193.98193359 C-56.41997794 192.11330624 -56.42710392 190.24468316 -56.43579102 188.37606812 C-56.45395536 183.32445654 -56.44698569 178.27317341 -56.43427467 173.22155643 C-56.42411273 167.92333546 -56.43354906 162.62514168 -56.43981934 157.32691956 C-56.44708581 148.4324135 -56.43753361 139.53804052 -56.41845703 130.64355469 C-56.39668357 120.37330353 -56.4037472 110.10336997 -56.42576265 99.83312649 C-56.44393714 90.99970871 -56.44646515 82.16638633 -56.43600798 73.3329559 C-56.42978519 68.06388684 -56.42890411 62.79496689 -56.44215393 57.52590752 C-56.45374186 52.57221415 -56.44563295 47.61892885 -56.4225769 42.66527939 C-56.41730581 40.85170607 -56.41877608 39.03809818 -56.42762756 37.2245388 C-56.50479195 19.80322666 -56.50479195 19.80322666 -51.89697266 12.50756836 C-51.31947266 11.47631836 -50.74197266 10.44506836 -50.14697266 9.38256836 C-36.99057244 -7.42838747 -18.35477908 -9.45582037 0 0 Z " fill="#FEFEFE" transform="translate(621.89697265625,251.492431640625)"/>
<path d="M0 0 C5.9816679 2.61481034 9.7122618 7.64327361 12.58203125 13.3828125 C12.67411583 15.66007424 12.69952723 17.94011897 12.69555664 20.21923828 C12.69570267 20.92178741 12.69584869 21.62433655 12.69599915 22.34817505 C12.69530139 24.67485623 12.68751544 27.00145777 12.6796875 29.328125 C12.67782283 30.93952389 12.67639916 32.55092334 12.67539978 34.162323 C12.67157845 38.40710002 12.66175143 42.65184292 12.6506958 46.89660645 C12.64047343 51.22663918 12.63590039 55.55667743 12.63085938 59.88671875 C12.62012883 68.38543234 12.603057 76.88411818 12.58203125 85.3828125 C13.86417007 85.36615791 13.86417007 85.36615791 15.17221069 85.34916687 C23.26288668 85.2486084 31.35335008 85.1726676 39.44450951 85.12375164 C43.60341624 85.09775698 47.76180275 85.06254733 51.92041016 85.00561523 C55.94049755 84.95092955 59.96008743 84.92131594 63.98051834 84.90842628 C65.5074305 84.89925139 67.03431818 84.88133595 68.56101608 84.85416222 C77.49879617 84.70153519 85.06136197 85.01506027 92.58203125 90.3828125 C94.8359375 92.76953125 94.8359375 92.76953125 96.14453125 95.0703125 C96.59957031 95.83730469 97.05460938 96.60429688 97.5234375 97.39453125 C100.04878435 102.13771039 100.23894232 106.03048022 99.58203125 111.3828125 C97.39317904 117.92106502 94.30811285 122.56542477 88.58203125 126.3828125 C84.45851333 128.42339424 81.07366159 128.62612202 76.49682617 128.60986328 C75.80359253 128.61015533 75.11035889 128.61044739 74.39611816 128.61074829 C72.11811551 128.60936147 69.8404451 128.59383117 67.5625 128.578125 C65.97781045 128.57439256 64.39311859 128.57154668 62.8084259 128.56954956 C58.64748712 128.56193127 54.48668904 128.54229838 50.32580566 128.5201416 C46.07594709 128.49964422 41.82606568 128.49053953 37.57617188 128.48046875 C29.24472726 128.4590507 20.91339678 128.42493666 12.58203125 128.3828125 C12.60201675 129.70586647 12.60201675 129.70586647 12.62240601 131.0556488 C12.7429812 139.39677517 12.83415663 147.73760589 12.89290428 156.07940578 C12.92412365 160.36736378 12.96642145 164.65459746 13.03466797 168.94213867 C13.10020043 173.08543504 13.13580784 177.22803791 13.15129471 181.37181282 C13.16232083 182.94703135 13.18385241 184.52221494 13.21641159 186.09713554 C13.37892879 194.28934226 13.47793697 201.00874175 8.16690063 207.76063538 C3.77567711 212.25522806 -1.39109712 215.32270994 -7.7734375 215.41796875 C-15.54793792 214.93573801 -20.51482847 212.71393633 -25.73046875 206.9453125 C-29.83714128 202.09606356 -30.66766828 197.6744309 -30.64501953 191.3894043 C-30.64531158 190.70592422 -30.64560364 190.02244415 -30.64590454 189.31825256 C-30.64451792 187.07271359 -30.62898862 184.82751183 -30.61328125 182.58203125 C-30.60954874 181.01976198 -30.60670289 179.45749035 -30.60470581 177.8952179 C-30.5970881 173.79346191 -30.57745571 169.6918487 -30.55529785 165.59014893 C-30.53479922 161.40061372 -30.52569552 157.21105533 -30.515625 153.02148438 C-30.49420797 144.8085284 -30.46009463 136.59568824 -30.41796875 128.3828125 C-31.26464111 128.38947433 -32.11131348 128.39613617 -32.98364258 128.40299988 C-40.98670223 128.46326429 -48.98968498 128.50886458 -56.99291992 128.53824902 C-61.1068698 128.55386403 -65.22063122 128.57502552 -69.33447266 128.60913086 C-73.30913124 128.64187381 -77.28360923 128.65969679 -81.25839233 128.66744423 C-82.77016032 128.67296107 -84.28191911 128.68373384 -85.79360962 128.70000267 C-103.29513305 128.88075847 -103.29513305 128.88075847 -109.66015625 123.48046875 C-110.19898438 122.80886719 -110.7378125 122.13726563 -111.29296875 121.4453125 C-112.12441406 120.44177734 -112.12441406 120.44177734 -112.97265625 119.41796875 C-116.94492308 113.82458761 -116.98879445 109.12042734 -116.41796875 102.3828125 C-115.33086365 96.18308441 -112.28303125 92.81806127 -107.55078125 88.828125 C-102.89864841 85.67558077 -99.00107757 85.13566616 -93.42456055 85.15576172 C-92.74108047 85.15546967 -92.0576004 85.15517761 -91.35340881 85.15487671 C-89.10786984 85.15626333 -86.86266808 85.17179263 -84.6171875 85.1875 C-83.05491823 85.19123251 -81.4926466 85.19407836 -79.93037415 85.19607544 C-75.82861816 85.20369315 -71.72700495 85.22332554 -67.62530518 85.2454834 C-63.43576997 85.26598203 -59.24621158 85.27508573 -55.05664062 85.28515625 C-46.84368465 85.30657328 -38.63084449 85.34068662 -30.41796875 85.3828125 C-30.4268512 84.52361206 -30.43573364 83.66441162 -30.44488525 82.7791748 C-30.52523175 74.65841063 -30.58603475 66.5377811 -30.62521744 58.4167099 C-30.64603937 54.24215149 -30.67425726 50.06792317 -30.71972656 45.89355469 C-30.76337841 41.86052737 -30.78714638 37.82781636 -30.79747772 33.79457092 C-30.8048346 32.26045253 -30.81920067 30.72635028 -30.84088898 29.19236755 C-30.9659928 19.97227596 -31.02660703 12.61806388 -24.63671875 5.359375 C-23.7859375 4.69035156 -23.7859375 4.69035156 -22.91796875 4.0078125 C-22.0671875 3.31558594 -22.0671875 3.31558594 -21.19921875 2.609375 C-14.8519888 -1.76130527 -7.41575872 -1.89287541 0 0 Z " fill="#FEFEFE" transform="translate(662.41796875,540.6171875)"/>
</svg>
