<svg xmlns="http://www.w3.org/2000/svg" width="48" height="48"><defs><linearGradient id="b" x1="0" x2="1" y1="0" y2="0" gradientTransform="scale(197.176 -197.176) rotate(-45 -.67 -1.61)" href="#a" spreadMethod="pad"><stop offset="0"/><stop offset=".5" stop-color="#4d4d4d"/><stop offset="1"/></linearGradient><linearGradient id="a" gradientUnits="userSpaceOnUse"/><linearGradient id="c" x1="0" x2="1" y1="0" y2="0" gradientTransform="scale(162.483 -162.483) rotate(-45 -.86 -2.09)" href="#a" spreadMethod="pad"><stop offset="0"/><stop offset=".5" stop-color="#4d4d4d"/><stop offset="1"/></linearGradient><clipPath id="d"><path d="M194.48 317.52h123.04V194.48H194.48Z"/></clipPath><clipPath id="e"><path d="M212.67 299.33h86.66v-86.66h-86.66z"/></clipPath><clipPath id="f"><path d="M234.04 277.96h43.92v-43.92h-43.92z"/></clipPath></defs><path fill="#b3ddf0" d="M6 9h36v30H6Z"/><path fill="url(#b)" d="M16.76 22.9a7.17 7.17 0 0 0 7.22 7.11 7.17 7.17 0 0 0 7.22-7.1c0-3.92-3.24-7.1-7.22-7.1a7.17 7.17 0 0 0-7.22 7.1"/><path fill="url(#c)" d="M18.03 22.9a5.9 5.9 0 0 0 5.95 5.86 5.9 5.9 0 0 0 5.95-5.85 5.9 5.9 0 0 0-5.95-5.85 5.9 5.9 0 0 0-5.95 5.85"/><path fill="#e84c3d" d="m25.07 21.12-4.25-4.6a7.28 7.28 0 0 1 7.04.4l-1.87 5.76Z"/><path fill="#9c56b8" d="m26.1 22.95 1.92-5.93a7.05 7.05 0 0 1 3.17 6.2l-6 1.28Z"/><path fill="#f1c50e" d="M16.78 22.41a7.12 7.12 0 0 1 3.86-5.8l4.14 4.47h-1.83Z"/><path fill="#00bd9b" d="M23.98 30.01a7.28 7.28 0 0 1-3.87-1.1l1.86-5.77.92 1.55 4.25 4.6c-.98.48-2.05.72-3.16.72"/><path fill="#51d88b" d="M19.94 28.8a7.05 7.05 0 0 1-3.17-6.2l6-1.29-.9 1.56Z"/><path fill="#2d98e0" d="M23.18 24.73H25l6.17-1.33a7.12 7.12 0 0 1-3.86 5.8Z"/><g clip-path="url(#d)" opacity=".3" transform="matrix(.073 0 0 -.072 5.24 41.34)"><path d="M317.52 256a61.52 61.52 0 1 0-123.04 0 61.52 61.52 0 0 0 123.04 0"/></g><g clip-path="url(#e)" opacity=".3" transform="matrix(.073 0 0 -.072 5.24 41.34)"><path d="M299.33 256a43.33 43.33 0 1 0-86.66 0 43.33 43.33 0 0 0 86.66 0"/></g><g clip-path="url(#f)" opacity=".3" transform="matrix(.073 0 0 -.072 5.24 41.34)"><path d="M277.96 256a21.96 21.96 0 1 0-43.92 0 21.96 21.96 0 0 0 43.92 0"/></g><path fill="#00cdd1" d="m30.62 17.61-1.24-1.23-1.21.6a7.46 7.46 0 0 0-1.02-.59l-.1-1.34-1.68-.45-.76 1.12h.01c-.41-.04-.8-.04-1.19 0h.01l-.75-1.12-1.7.45-.08 1.34c-.36.17-.7.37-1.02.59l-1.22-.6-1.23 1.23.6 1.21a6.5 6.5 0 0 0-.6 1.02l-1.35.09-.45 1.68 1.12.74c-.04.4 0 .79.01 1.18h-.01l-1.13.75.45 1.68 1.36.09c.17.35.37.69.59 1.01l-.6 1.21 1.24 1.23 1.21-.6c.33.23.67.43 1.02.6l.1 1.34 1.68.45.76-1.12c.4.03.79.03 1.18 0l.75 1.12 1.69-.45.09-1.34c.35-.17.7-.37 1.02-.6l1.22.6 1.24-1.23-.6-1.2c.22-.32.41-.66.58-1.02l1.36-.1.45-1.67-1.13-.75c.04-.4.02-.79.01-1.18l1.12-.75-.45-1.67-1.35-.1a7.1 7.1 0 0 0-.6-1.01zm-2.77 9.13a5.43 5.43 0 0 1-7.65 0 5.35 5.35 0 0 1 0-7.6 5.44 5.44 0 0 1 7.65 0 5.35 5.35 0 0 1 0 7.6z"/><path d="M9.33 10.31c-.79 0-1.42.53-1.42 1.2v24.66c0 .66.63 1.2 1.42 1.2H38.7c.79 0 1.42-.54 1.42-1.2V11.5c0-.67-.63-1.2-1.42-1.2zm-.03 1.17h29.4c.04 0 .03-.01.03.03v24.66c0 .03.01.02-.03.02H9.33c-.04 0-.03.01-.03-.02z" opacity=".05"/><path d="M9.33 10.31c-.79 0-1.42.53-1.42 1.2v24.66c0 .66.63 1.2 1.42 1.2H38.7c.79 0 1.42-.54 1.42-1.2V11.5c0-.67-.63-1.2-1.42-1.2zm0 .74H38.7c.32 0 .55.19.55.46v24.66c0 .26-.23.46-.55.46H9.33c-.32 0-.55-.2-.55-.46V11.5c0-.27.23-.45.55-.45z" opacity=".12"/><path d="M9.33 10.31c-.79 0-1.42.53-1.42 1.2v24.66c0 .66.63 1.2 1.42 1.2H38.7c.79 0 1.42-.54 1.42-1.2V11.5c0-.67-.63-1.2-1.42-1.2zm0 .38 29.37.01c.54 0 .96.35.96.8v24.67c0 .45-.42.8-.96.8H9.33c-.54 0-.96-.35-.96-.8V11.5c0-.46.42-.81.96-.81z" opacity=".15"/><path fill="#254f67" d="M6.96 7.13c-1.57 0-2.84 1.06-2.84 2.39v28.64c0 1.32 1.27 2.38 2.84 2.38h34.1c1.58 0 2.85-1.06 2.85-2.38V9.52c0-1.33-1.27-2.39-2.84-2.39zm31.74 3.18c.79 0 1.42.53 1.42 1.2v24.66c0 .66-.63 1.2-1.42 1.2H9.33c-.79 0-1.42-.54-1.42-1.2V11.5c0-.67.63-1.2 1.02-1.2z"/><path fill="#0e8dff" d="M7.9 34.58h8.06v3.18H7.91Z"/><path fill="#32a6a0" d="M15.96 34.58h8.05v3.18h-8.05z"/><path fill="#f66a08" d="M24.02 34.58h8.05v3.18H24z"/><path fill="#e4d32d" d="M32.07 34.58h8.05v3.18h-8.05Z"/><path fill="#386a87" d="M8.86 9.52c-1.05 0-1.9.7-1.9 1.59v25.46c0 .88.85 1.59 1.9 1.59h30.31c1.05 0 1.9-.71 1.9-1.6V11.12c0-.88-.85-1.6-1.9-1.6zm.47.8H38.7c.79 0 1.42.52 1.42 1.19v24.66c0 .66-.63 1.2-1.42 1.2H9.33c-.79 0-1.42-.54-1.42-1.2V11.5c0-.67.63-1.18 1.42-1.18z"/><path fill="url(#b-9)" d="M6.96 7.13c-1.57 0-2.84 1.06-2.84 2.39v28.64a2 2 0 0 0 .14.73v.04c.05.11.12.22.18.32a2.32 2.32 0 0 0 .24.31l.28.28a2.96 2.97 0 0 0 .71.43 3.5 3.5 0 0 0 .42.14 2.47 2.47 0 0 1-.34-.15l-.06-.03-.17-.1-.14-.1a2.22 2.22 0 0 1-.24-.2 2.13 2.13 0 0 1-.15-.17l-.03-.05-.09-.12a2.04 2.04 0 0 1-.13-.25l-.01-.03c-.02-.03-.02-.07-.03-.1l-.05-.13a1.73 1.73 0 0 1-.06-.43V9.92c0-1.11 1.05-2 2.37-2h34.1c1.33 0 2.38.89 2.38 2v28.63a1.94 1.94 0 0 1-.06.43 1.64 1.64 0 0 1-.08.23l-.01.03a2.01 2.01 0 0 1-.1.21l-.06.1-.1.11a2.16 2.16 0 0 1-.14.16 2.29 2.29 0 0 1-.23.2 2.27 2.27 0 0 1-.22.15l-.14.09a2.48 2.48 0 0 1-.36.15 3.12 3.12 0 0 0 .42-.14c.26-.11.5-.27.7-.43a2.49 2.49 0 0 0 .29-.28l.23-.3a2.1 2.1 0 0 0 .18-.33l.02-.04c.04-.11.06-.23.09-.35a2 2 0 0 0 .04-.38V9.52c0-1.33-1.27-2.39-2.84-2.39z" opacity=".2"/><path fill="url(#o-7)" d="M6.73 40.47c-1.57 0-2.84-1.06-2.84-2.39V9.44a2 2 0 0 1 .05-.38c.02-.12.04-.24.08-.35l.02-.04a2.12 2.12 0 0 1 .18-.32 2.4 2.4 0 0 1 .23-.31 2.42 2.42 0 0 1 .29-.28 2.96 2.96 0 0 1 .7-.43 3.5 3.5 0 0 1 .42-.14 2.54 2.54 0 0 0-.34.15l-.06.03-.16.1-.15.1a2.22 2.22 0 0 0-.24.2 2.1 2.11 0 0 0-.14.17c-.02.01-.02.03-.03.05l-.1.12a1.9 1.9 0 0 0-.13.25l-.01.03-.03.1-.04.13a1.73 1.73 0 0 0-.06.42v28.64c0 1.11 1.05 2 2.36 2h34.11c1.32 0 2.37-.89 2.37-2V9.05a1.69 1.69 0 0 0-.06-.43 1.64 1.64 0 0 0-.07-.23l-.02-.03a1.84 1.84 0 0 0-.1-.2l-.06-.1-.09-.12a2.16 2.16 0 0 0-.15-.16 2.17 2.17 0 0 0-.22-.2 2.28 2.29 0 0 0-.22-.15l-.15-.09a2.48 2.48 0 0 0-.36-.15l.42.14a2.9 2.9 0 0 1 1 .71 2.39 2.39 0 0 1 .23.31 2.12 2.12 0 0 1 .18.32l.01.04a2 2 0 0 1 .09.35c.02.13.04.25.04.38V38.1c0 1.32-1.26 2.38-2.84 2.38z" opacity=".2"/></svg>